<svg xmlns="http://www.w3.org/2000/svg" version="1.1" xmlns:xlink="http://www.w3.org/1999/xlink" xmlns:svgjs="http://svgjs.dev/svgjs" width="1000" height="123" viewBox="0 0 1000 123"><g transform="matrix(1,0,0,1,-0.6060606060606233,-0.02879083680101502)"><svg viewBox="0 0 396 49" data-background-color="#000000" preserveAspectRatio="xMidYMid meet" height="123" width="1000" xmlns="http://www.w3.org/2000/svg" xmlns:xlink="http://www.w3.org/1999/xlink"><g id="tight-bounds" transform="matrix(1,0,0,1,0.2400000000000091,0.011469520351624851)"><svg viewBox="0 0 395.52 48.97706095929677" height="48.97706095929677" width="395.52"><g><svg viewBox="0 0 395.52 48.97706095929677" height="48.97706095929677" width="395.52"><g><svg viewBox="0 0 395.52 48.97706095929677" height="48.97706095929677" width="395.52"><g id="textblocktransform"><svg viewBox="0 0 395.52 48.97706095929677" height="48.97706095929677" width="395.52" id="textblock"><g><svg viewBox="0 0 395.52 48.97706095929677" height="48.97706095929677" width="395.52"><g transform="matrix(1,0,0,1,0,0)"><svg width="395.52" viewBox="3 -32.400001525878906 261.6300048828125 32.400001525878906" height="48.97706095929677" data-palette-color="#ffffff"><path d="M28.2 0L9.65 0Q6.25 0 4.65-0.3 3.05-0.6 3.05-1L3.05-1 6.05-7.45Q7.2-7.25 10.8-7.08 14.4-6.9 20.15-6.9L20.15-6.9 24.1-6.9Q25.85-6.9 26.45-7.4 27.05-7.9 27.05-8.85L27.05-8.85 27.05-9.35Q27.05-10.55 26.45-11 25.85-11.45 24.1-11.45L24.1-11.45 12.65-11.45Q7.6-11.45 5.3-13.33 3-15.2 3-19.45L3-19.45 3-21.25Q3-23.45 3.83-25.3 4.65-27.15 6.65-28.28 8.65-29.4 12.15-29.4L12.15-29.4 28.75-29.4Q31.8-29.4 33.83-29.05 35.85-28.7 35.85-28.3L35.85-28.3 34.35-22.1Q32.95-22.25 29.08-22.43 25.2-22.6 19.25-22.6L19.25-22.6 15.65-22.65Q14.1-22.65 13.45-22.23 12.8-21.8 12.75-20.65L12.75-20.65 12.75-20.3Q12.75-19.15 13.45-18.7 14.15-18.25 15.7-18.25L15.7-18.25 26.7-18.25Q29.9-18.25 32.15-17.6 34.4-16.95 35.6-15.23 36.8-13.5 36.8-10.15L36.8-10.15 36.8-8.35Q36.8-4.6 34.88-2.3 32.95 0 28.2 0L28.2 0ZM52.05 0L42.8 0 42.8-32.4 52.05-32.4 52.05-21.4Q54.2-21.8 57.15-22.1 60.1-22.4 62.7-22.4L62.7-22.4 65.2-22.4Q67.7-22.4 69.05-21.7 70.4-21 70.97-19.95 71.55-18.9 71.67-17.82 71.8-16.75 71.8-16L71.8-16 71.8 0 62.65 0 62.65-14.1Q62.65-16.1 60.25-16.1L60.25-16.1 53.55-16.1Q52.6-16.1 52.32-15.93 52.05-15.75 52.05-15L52.05-15 52.05 0ZM98.6 0L84.7 0Q81.4 0 79.75-0.95 78.1-1.9 77.57-3.58 77.05-5.25 77.05-7.45L77.05-7.45 77.05-15Q77.05-17.1 77.6-18.78 78.15-20.45 79.77-21.43 81.4-22.4 84.7-22.4L84.7-22.4 98.6-22.4Q101.9-22.4 103.52-21.43 105.15-20.45 105.67-18.78 106.2-17.1 106.2-15L106.2-15 106.2-7.45Q106.2-5.25 105.67-3.58 105.15-1.9 103.52-0.95 101.9 0 98.6 0L98.6 0ZM88.7-6.3L88.7-6.3 94.65-6.3Q97.05-6.3 97-8.3L97-8.3 97-14.1Q97-15.1 96.47-15.6 95.95-16.1 94.65-16.1L94.65-16.1 88.75-16.1Q87.45-16.1 86.9-15.6 86.35-15.1 86.35-14.1L86.35-14.1 86.35-8.3Q86.3-6.3 88.7-6.3ZM129.99 0L119.34 0Q116.04 0 114.27-0.95 112.49-1.9 111.84-3.58 111.19-5.25 111.19-7.45L111.19-7.45 111.19-15Q111.19-17 111.87-18.68 112.54-20.35 114.29-21.38 116.04-22.4 119.34-22.4L119.34-22.4 129.69-22.4Q133.59-22.4 135.67-21.48 137.74-20.55 138.52-18.88 139.29-17.2 139.29-15L139.29-15 139.29-8.6 130.54-8.6Q126.04-8.6 123.72-8.8 121.39-9 120.44-9.05L120.44-9.05 120.44-8.3Q120.39-6.3 122.84-6.3L122.84-6.3 124.39-6.3Q128.39-6.3 131.79-6.48 135.19-6.65 136.84-6.8L136.84-6.8 139.84-2.05Q139.84-1.55 138.99-1.1 138.14-0.65 136.02-0.33 133.89 0 129.99 0L129.99 0ZM120.44-14.1L120.44-13.4 130.04-13.4 130.04-14.1Q130.04-15.1 129.87-15.5 129.69-15.9 128.79-16 127.89-16.1 125.74-16.1L125.74-16.1 122.84-16.1Q120.44-16.1 120.44-14.1L120.44-14.1ZM155.49 0L145.84 0 145.84-29.4 155.49-29.4 155.49-18.2 171.04-18.2 171.04-29.4 180.64-29.4 180.64 0 171.04 0 171.04-11.4 155.49-11.4 155.49 0ZM196.59 0L195.09 0Q190.69 0 188.79-1.65 186.89-3.3 186.89-7.15L186.89-7.15Q186.89-10.7 188.86-12.3 190.84-13.9 195.09-13.9L195.09-13.9 196.64-13.9Q199.44-13.9 201.99-13.7 204.54-13.5 206.39-13.3L206.39-13.3 206.39-14.1Q206.39-14.8 206.09-15.45 205.79-16.1 203.99-16.1L203.99-16.1 201.49-16.1Q196.04-16.1 193.09-15.93 190.14-15.75 189.44-15.6L189.44-15.6 188.89-20.9Q188.89-21.4 190.64-21.73 192.39-22.05 195.44-22.23 198.49-22.4 202.39-22.4L202.39-22.4 207.39-22.4Q210.69-22.4 212.44-21.43 214.19-20.45 214.84-18.8 215.49-17.15 215.49-15L215.49-15 215.49 0 208.39 0 206.44-1Q205.24-0.75 202.61-0.38 199.99 0 196.59 0L196.59 0ZM197.99-5.9L197.99-5.9 204.89-5.9Q205.99-5.9 206.19-6.1 206.39-6.3 206.39-7.35L206.39-7.35 206.39-9.1 197.99-9.1Q197.04-9.1 196.59-8.75 196.14-8.4 196.14-7.4L196.14-7.4Q196.14-6.45 196.59-6.18 197.04-5.9 197.99-5.9ZM230.04 0L228.59 0Q225.29 0 223.66-0.98 222.04-1.95 221.51-3.65 220.99-5.35 220.99-7.4L220.99-7.4 220.99-22.4 230.19-22.4 230.19-8.3Q230.19-6.3 232.59-6.3L232.59-6.3 238.29-6.3Q239.39-6.3 239.59-6.5 239.79-6.7 239.79-7.8L239.79-7.8 239.79-22.4 249.04-22.4 249.04 0 241.79 0 239.89-1Q237.89-0.6 235.29-0.3 232.69 0 230.04 0L230.04 0ZM264.63 0L255.53 0 255.53-27.7 255.03-31.7 264.63-31.7 264.63 0Z" opacity="1" transform="matrix(1,0,0,1,0,0)" fill="#ffffff" class="wordmark-text-0" data-fill-palette-color="primary" id="text-0"></path></svg></g></svg></g></svg></g></svg></g><g></g></svg></g><defs></defs></svg><rect width="395.52" height="48.97706095929677" fill="none" stroke="none" visibility="hidden"></rect></g></svg></g></svg>