<?xml version="1.0" standalone="no"?>
<!DOCTYPE svg PUBLIC "-//W3C//DTD SVG 20010904//EN"
 "http://www.w3.org/TR/2001/REC-SVG-20010904/DTD/svg10.dtd">
<svg version="1.0" xmlns="http://www.w3.org/2000/svg"
 width="1200.000000pt" height="834.000000pt" viewBox="0 0 1200.000000 834.000000"
 preserveAspectRatio="xMidYMid meet">

<g transform="translate(0.000000,834.000000) scale(0.100000,-0.100000)"
fill="#000000" stroke="none">
<path d="M0 4170 l0 -4170 6000 0 6000 0 0 4170 0 4170 -6000 0 -6000 0 0
-4170z m3398 431 l2 -174 43 7 c23 3 113 11 200 17 187 13 271 3 322 -35 55
-43 60 -69 60 -386 l0 -285 -145 0 -145 0 -5 245 -5 244 -25 13 c-28 14 -266
18 -287 5 -9 -6 -13 -73 -15 -257 l-3 -250 -145 0 -145 0 -3 505 c-1 278 0
511 3 518 3 10 39 12 147 10 l143 -3 3 -174z m6762 -356 l0 -505 -139 0 -140
0 -4 473 c-3 259 -8 487 -12 505 l-7 32 151 0 151 0 0 -505z m-7356 425 c33
-5 64 -14 69 -19 5 -5 0 -45 -15 -102 l-23 -94 -321 4 c-232 3 -326 0 -342 -8
-17 -9 -22 -21 -22 -55 0 -71 -3 -70 314 -76 303 -6 317 -8 383 -64 48 -40 66
-112 61 -240 -6 -162 -50 -229 -173 -261 -48 -12 -126 -15 -410 -15 -330 0
-457 8 -478 29 -5 5 10 49 37 107 l45 99 133 -5 c73 -3 218 -5 321 -5 175 0
190 1 203 19 18 25 18 77 0 102 -13 18 -32 19 -293 25 -199 4 -289 10 -317 20
-55 19 -111 75 -125 124 -14 52 -14 223 0 266 25 73 90 129 174 150 45 11 711
10 779 -1z m3888 -167 l3 -178 245 0 245 0 3 178 2 177 150 0 150 0 0 -470 0
-470 -150 0 -150 0 0 180 c0 178 0 180 -22 185 -13 3 -124 4 -248 3 l-225 -3
-5 -180 -5 -180 -150 0 -150 0 -3 468 -2 467 155 0 155 0 2 -177z m-1690 -62
c41 -13 94 -67 105 -109 10 -35 10 -429 1 -464 -11 -38 -55 -86 -97 -105 -30
-14 -82 -18 -318 -21 -302 -4 -367 2 -425 41 -65 44 -73 76 -73 312 0 204 1
211 25 260 30 59 69 85 148 96 85 11 590 4 634 -10z m1019 0 c58 -18 102 -53
127 -101 20 -40 22 -59 22 -183 l0 -139 -301 4 -300 3 6 -25 c13 -53 22 -55
198 -53 89 2 198 6 242 9 l80 6 49 -76 c26 -42 46 -83 43 -90 -3 -7 -36 -22
-74 -32 -60 -17 -105 -19 -368 -19 l-300 0 -56 27 c-41 21 -61 38 -80 70 -23
42 -24 49 -24 253 0 194 2 213 21 250 29 56 89 96 161 106 79 11 509 3 554
-10z m2454 -5 c22 -10 52 -29 68 -44 50 -47 57 -98 57 -389 l0 -264 -117 3
c-71 3 -131 9 -149 18 -27 12 -45 11 -120 -1 -49 -8 -150 -14 -224 -13 -167 0
-218 16 -265 83 -28 40 -30 48 -30 134 0 118 21 157 103 195 48 22 69 25 176
26 66 0 169 -3 229 -7 l107 -8 0 23 c0 53 -20 63 -132 66 -57 2 -168 -1 -248
-6 -80 -5 -148 -6 -153 -2 -13 11 -27 153 -16 166 14 17 66 25 214 34 206 13
452 6 500 -14z m593 -223 c2 -234 3 -243 23 -254 28 -15 154 -23 222 -15 l57
7 2 252 3 252 145 0 145 0 0 -355 0 -355 -110 -3 c-88 -2 -116 1 -141 14 -29
16 -40 16 -136 3 -56 -8 -159 -14 -228 -14 -115 0 -130 2 -175 25 -38 20 -55
37 -75 75 -25 49 -25 53 -29 323 -2 223 -1 276 10 283 8 5 75 8 149 7 l135 -3
3 -242z"/>
<path d="M4530 4253 c-34 -13 -40 -36 -40 -154 0 -92 3 -121 15 -133 21 -21
92 -29 198 -23 123 7 127 12 127 157 0 153 -1 154 -162 157 -67 1 -130 0 -138
-4z"/>
<path d="M5612 4250 c-23 -10 -46 -55 -36 -71 3 -5 72 -9 155 -9 l149 0 0 28
c0 51 -10 55 -132 59 -62 2 -123 -1 -136 -7z"/>
<path d="M7989 4004 c-13 -35 -3 -63 24 -69 12 -3 83 -4 157 -3 l135 3 3 48 3
47 -156 0 -155 0 -11 -26z"/>
</g>
</svg>
