<?xml version="1.0" standalone="no"?>
<!DOCTYPE svg PUBLIC "-//W3C//DTD SVG 20010904//EN"
 "http://www.w3.org/TR/2001/REC-SVG-20010904/DTD/svg10.dtd">
<svg version="1.0" xmlns="http://www.w3.org/2000/svg"
 width="1200.000000pt" height="750.000000pt" viewBox="0 0 1200.000000 750.000000"
 preserveAspectRatio="xMidYMid meet">

<g transform="translate(0.000000,750.000000) scale(0.100000,-0.100000)"
fill="#000000" stroke="none">
<path d="M0 3750 l0 -3750 6000 0 6000 0 0 3750 0 3750 -6000 0 -6000 0 0
-3750z m3400 356 l0 -173 43 9 c23 5 134 11 247 14 202 6 206 6 249 -18 29
-16 52 -38 65 -63 20 -38 21 -56 21 -330 l0 -290 -147 -3 -148 -3 0 240 c0
206 -2 242 -16 256 -13 13 -39 15 -162 13 l-147 -3 -3 -252 -2 -253 -150 0
-150 0 0 515 0 515 150 0 150 0 0 -174z m6760 -351 l0 -505 -139 0 -140 0 -4
473 c-3 259 -8 487 -12 505 l-7 32 151 0 151 0 0 -505z m-7317 416 c37 -12 38
-13 31 -49 -4 -20 -15 -64 -24 -97 l-17 -60 -324 4 c-366 4 -359 6 -359 -68 0
-65 1 -65 309 -71 l276 -5 60 -30 c85 -43 107 -85 113 -220 8 -183 -40 -275
-161 -310 -50 -14 -108 -16 -467 -13 -359 3 -411 5 -425 19 -15 15 -12 24 31
117 l47 102 39 -7 c22 -3 166 -6 320 -7 266 -1 280 0 294 18 18 26 18 81 0 99
-12 12 -67 15 -278 20 -302 5 -347 14 -409 76 -49 49 -62 100 -57 231 3 93 6
110 30 152 32 53 80 86 152 104 69 18 763 13 819 -5z m3845 -164 l2 -177 248
2 247 3 3 178 2 177 150 0 150 0 0 -470 0 -470 -150 0 -150 0 0 180 0 180
-250 0 -250 0 0 -180 0 -180 -155 0 -155 0 0 463 c0 255 3 467 7 471 4 3 72 5
152 4 l146 -3 3 -178z m-1672 -66 c91 -42 107 -99 102 -366 -4 -223 -12 -249
-87 -293 l-46 -27 -293 -3 c-194 -2 -311 1 -348 8 -66 14 -117 54 -136 108
-18 51 -18 422 0 473 15 43 68 97 108 109 16 4 171 9 344 9 286 1 319 -1 356
-18z m1007 5 c64 -19 106 -52 128 -100 15 -34 19 -66 19 -179 l0 -139 -297 3
-298 2 3 -24 c1 -13 12 -32 25 -43 21 -18 34 -18 222 -11 110 4 216 8 235 9
33 1 38 -4 83 -72 27 -40 47 -79 44 -87 -3 -8 -30 -22 -59 -31 -44 -14 -104
-18 -340 -22 -309 -4 -367 1 -429 42 -67 45 -74 73 -74 311 0 205 1 211 25
255 19 34 38 52 79 73 l55 27 266 0 c198 0 279 -4 313 -14z m2489 -21 c79 -56
83 -70 86 -392 l3 -283 -110 0 c-83 0 -119 4 -145 17 -32 15 -43 15 -103 4
-38 -7 -126 -15 -198 -18 -198 -8 -282 17 -329 97 -17 28 -21 52 -21 126 0 80
3 95 25 127 14 21 45 47 70 60 43 21 56 22 283 21 237 -1 237 -1 237 20 0 12
-6 30 -13 40 -12 17 -32 18 -270 15 l-256 -4 -6 55 c-4 30 -9 67 -11 82 -11
56 62 67 433 65 l281 -2 44 -30z m558 -205 l0 -240 24 -15 c19 -12 49 -15 147
-13 l124 3 3 253 2 252 150 0 150 0 0 -355 0 -355 -115 0 c-87 0 -124 4 -147
16 -27 14 -40 14 -112 3 -45 -8 -148 -14 -231 -14 -141 0 -153 1 -195 25 -33
18 -51 38 -70 75 -24 49 -25 56 -28 312 -3 145 -2 270 2 278 4 12 31 15 151
15 l145 0 0 -240z"/>
<path d="M4506 3744 c-13 -12 -16 -40 -16 -139 0 -158 -3 -155 162 -155 125 0
163 10 172 44 3 11 6 66 6 121 0 147 3 145 -170 145 -113 0 -142 -3 -154 -16z"/>
<path d="M5598 3748 c-9 -7 -18 -24 -20 -38 l-3 -25 153 -3 152 -3 0 29 c0 15
-5 33 -12 40 -17 17 -248 16 -270 0z"/>
<path d="M8004 3532 c-19 -12 -26 -50 -14 -72 10 -20 18 -20 163 -18 l152 3 3
48 3 47 -148 0 c-81 0 -153 -4 -159 -8z"/>
</g>
</svg>
